<?xml version="1.0" encoding="UTF-8"?>
<svg id="Layer_2" data-name="Layer 2" xmlns="http://www.w3.org/2000/svg" viewBox="0 0 928.6 910.03">
  <defs>
    <style>
      .cls-1 {
        fill: #363636;
      }

      .cls-2 {
        fill: #b4b4b5;
      }
    </style>
  </defs>
  <g id="Layer_1-2" data-name="Layer 1">
    <g>
      <rect class="cls-1" y="97.41" width="815.78" height="812.62" rx="99.89" ry="99.89"/>
      <path class="cls-2" d="M858.17,0L183.26.03c-38.87,0-70.38,31.5-70.39,70.37,0,0,0,.02,0,.02v140.14s177.78.03,177.78.03c14.05-28.58,43.13-46.69,74.98-46.69,32.03.03,61.24,18.33,75.23,47.14l171.37.03c13.96-28.84,43.19-47.15,75.23-47.13,46.21-.04,83.7,37.38,83.75,83.59,0,.05,0,.11,0,.16.04,46.23-37.41,83.74-83.65,83.78-.04,0-.09,0-.13,0-33.79-.02-64.27-20.33-77.28-51.52h-159.81s210.26,210.26,210.26,210.26c8.65-2.95,17.73-4.46,26.87-4.48,46.27.01,83.78,37.52,83.79,83.79-.03,46.27-37.54,83.78-83.75,83.75-46.23.04-83.75-37.41-83.79-83.64,0-.05,0-.1,0-.15-.03-11.09,2.16-22.07,6.46-32.29l-212.22-212.22c-10.22,4.3-21.21,6.5-32.29,6.46-34,.01-64.64-20.52-77.56-51.98l-175.28-.03v462.79c-.01,38.87,31.49,70.39,70.36,70.4.01,0,.03,0,.04,0h674.95c38.87,0,70.38-31.5,70.39-70.37,0,0,0-.02,0-.02l.04-671.8c0-38.9-31.53-70.43-70.43-70.43"/>
    </g>
  </g>
</svg>