<?xml version="1.0" encoding="UTF-8"?>
<svg id="Layer_2" data-name="Layer 2" xmlns="http://www.w3.org/2000/svg" viewBox="0 0 1076.19 1072.02">
  <defs>
    <style>
      .cls-1 {
        fill: #363636;
      }

      .cls-2 {
        fill: #b4b4b5;
      }
    </style>
  </defs>
  <g id="Layer_1-2" data-name="Layer 1">
    <g>
      <rect class="cls-1" width="1076.19" height="1072.02" rx="131.77" ry="131.77"/>
      <path class="cls-2" d="M893.09,108.58l-710,.04c-40.89,0-74.04,33.13-74.05,74.02,0,0,0,.02,0,.02v147.43s187.02.04,187.02.04c14.78-30.07,45.37-49.12,78.88-49.11,33.7.03,64.42,19.28,79.14,49.6l180.28.03c14.69-30.34,45.44-49.6,79.14-49.58,48.61-.05,88.05,39.32,88.1,87.93,0,.06,0,.11,0,.17.04,48.64-39.36,88.1-88,88.14-.05,0-.09,0-.14,0-35.55-.02-67.61-21.39-81.3-54.2h-168.12s221.19,221.19,221.19,221.19c9.1-3.1,18.65-4.69,28.26-4.71,48.68.01,88.13,39.47,88.15,88.15-.04,48.68-39.5,88.14-88.1,88.1-48.64.04-88.1-39.35-88.15-87.99,0-.05,0-.1,0-.16-.04-11.67,2.28-23.22,6.8-33.97l-223.25-223.25c-10.75,4.52-22.31,6.83-33.97,6.8-35.77.01-68-21.59-81.59-54.68l-184.39-.04v486.85c-.01,40.89,33.13,74.05,74.02,74.06.01,0,.03,0,.04,0h710.03c40.89,0,74.04-33.13,74.05-74.02,0,0,0-.02,0-.02l.04-706.72c0-40.92-33.17-74.09-74.09-74.09"/>
    </g>
  </g>
</svg>